<svg width="714" height="790" viewBox="0 0 714 790" fill="none" xmlns="http://www.w3.org/2000/svg">
<rect width="714" height="790" rx="5" fill="#F1CB9D"/>
<line x1="51.5" y1="744" x2="51.5" y2="45" stroke="black" stroke-width="3"/>
<line x1="127.747" y1="743.987" x2="127.747" y2="448.011" stroke="black" stroke-width="3"/>
<line x1="203.26" y1="743.987" x2="203.26" y2="448.011" stroke="black" stroke-width="3"/>
<line x1="279.507" y1="743.987" x2="279.507" y2="448.011" stroke="black" stroke-width="3"/>
<line x1="355.754" y1="743.987" x2="355.754" y2="448.011" stroke="black" stroke-width="3"/>
<line x1="431.267" y1="743.987" x2="431.267" y2="448.011" stroke="black" stroke-width="3"/>
<line x1="507.514" y1="743.987" x2="507.514" y2="448.011" stroke="black" stroke-width="3"/>
<line x1="583.027" y1="743.987" x2="583.027" y2="448.011" stroke="black" stroke-width="3"/>
<line x1="127.747" y1="340.976" x2="127.747" y2="44.9998" stroke="black" stroke-width="3"/>
<line x1="203.26" y1="340.976" x2="203.26" y2="44.9998" stroke="black" stroke-width="3"/>
<line x1="279.507" y1="340.976" x2="279.507" y2="44.9998" stroke="black" stroke-width="3"/>
<line x1="355.754" y1="340.976" x2="355.754" y2="44.9998" stroke="black" stroke-width="3"/>
<line x1="431.267" y1="340.976" x2="431.267" y2="44.9998" stroke="black" stroke-width="3"/>
<line x1="507.514" y1="340.976" x2="507.514" y2="44.9998" stroke="black" stroke-width="3"/>
<line x1="583.027" y1="340.976" x2="583.027" y2="44.9998" stroke="black" stroke-width="3"/>
<line x1="659.274" y1="744" x2="659.274" y2="45" stroke="black" stroke-width="3"/>
<line x1="53" y1="742.5" x2="660.774" y2="742.5" stroke="black" stroke-width="3"/>
<line x1="53" y1="46.4824" x2="660.774" y2="46.4824" stroke="black" stroke-width="3"/>
<line x1="53" y1="119.813" x2="660.774" y2="119.813" stroke="black" stroke-width="3"/>
<line x1="53" y1="193.143" x2="660.774" y2="193.143" stroke="black" stroke-width="3"/>
<line x1="53" y1="266.474" x2="660.774" y2="266.474" stroke="black" stroke-width="3"/>
<line x1="53" y1="339.804" x2="660.774" y2="339.804" stroke="black" stroke-width="3"/>
<line x1="53" y1="449.178" x2="660.774" y2="449.178" stroke="black" stroke-width="3"/>
<line x1="53" y1="522.508" x2="660.774" y2="522.508" stroke="black" stroke-width="3"/>
<line x1="53" y1="595.839" x2="660.774" y2="595.839" stroke="black" stroke-width="3"/>
<line x1="53" y1="669.169" x2="660.774" y2="669.169" stroke="black" stroke-width="3"/>
<path d="M197.736 380.68L197.16 381.256C200.872 383.816 205.608 388.488 207.336 392.2C213.224 395.144 215.976 383.56 197.736 380.68ZM177 404.04L168.232 402.12C167.208 409.992 164.072 419.464 156.264 425.672L156.84 426.44C167.464 421.448 172.328 413.192 174.568 405.384C176.04 405.384 176.808 404.872 177 404.04ZM188.328 397.384H182.056V421.32L188.328 423.112V397.384ZM199.528 403.336L196.072 407.688H185V409.544H204.2C205.096 409.544 205.672 409.224 205.864 408.52C203.496 406.28 199.528 403.336 199.528 403.336ZM171.048 408.008L170.28 408.456C174.44 422.024 181.352 425.032 195.24 425.032C199.08 425.032 207.976 425.032 211.56 425.032C211.624 422.6 212.648 420.552 214.76 420.104V419.272C210.088 419.4 199.848 419.4 195.496 419.4C182.312 419.4 175.336 417.928 171.048 408.008ZM204.328 397.384H205.032C204.648 399.24 203.688 402.568 203.048 404.424L203.752 404.872C205.992 403.784 209 401.8 210.728 400.264C212.008 400.2 212.712 400.072 213.16 399.624L207.464 394.184L204.328 397.384ZM207.72 397.384H158.12L158.696 399.24H207.72V397.384ZM198.632 376.968V375.944H192.232C190.12 382.856 186.216 389.32 180.392 393.928L181.032 394.888C189.48 390.664 195.496 384.712 198.632 376.968ZM173.416 376.968V375.944H167.208C165.096 382.984 161.32 389.96 156.008 394.952L156.712 395.848C164.456 391.176 170.344 384.84 173.416 376.968ZM173.736 379.656L173.096 380.168C175.336 381.896 178.024 385.096 178.856 387.656C183.592 390.728 187.496 381.576 173.736 379.656ZM176.68 367.88L168.808 367.112V395.976H169.896C172.008 395.976 174.504 394.824 174.504 394.312V369.544C176.04 369.288 176.552 368.712 176.68 367.88ZM202.216 368.072L194.024 367.304V395.976H195.048C197.352 395.976 199.848 394.824 199.848 394.312V369.8C201.512 369.608 202.088 368.968 202.216 368.072ZM206.952 371.72L203.688 375.944H185.448L185.96 377.8H211.112C212.008 377.8 212.648 377.48 212.84 376.776C210.6 374.664 206.952 371.72 206.952 371.72ZM179.048 371.976L176.104 375.944H157.224L157.736 377.8H182.888C183.784 377.8 184.424 377.48 184.552 376.776C182.504 374.792 179.048 371.976 179.048 371.976ZM223.592 368.2L223.08 368.712C225.704 370.76 228.84 374.472 229.864 377.672C235.944 381 239.656 369.352 223.592 368.2ZM219.496 382.216L218.92 382.728C221.48 384.648 224.232 388.104 225.064 391.112C230.76 394.76 234.984 383.56 219.496 382.216ZM222.76 407.816C222.056 407.816 219.88 407.816 219.88 407.816V409.16C221.288 409.224 222.248 409.48 223.08 410.056C224.552 411.016 224.872 416.584 223.848 423.112C224.168 425.352 225.384 426.376 226.728 426.376C229.352 426.376 231.208 424.456 231.272 421.448C231.528 416.008 229.288 413.512 229.16 410.312C229.096 408.712 229.544 406.6 230.056 404.616C230.888 401.416 235.624 387.272 238.056 379.72L236.968 379.4C225.832 404.232 225.832 404.232 224.552 406.536C223.848 407.816 223.592 407.816 222.76 407.816ZM236.584 373.192L237.096 375.048H277.544C278.504 375.048 279.144 374.728 279.336 374.024C276.776 371.656 272.552 368.2 272.552 368.2L268.776 373.192H236.584ZM266.472 373.192V417.992C266.472 418.952 266.088 419.4 264.936 419.4C263.272 419.4 255.208 418.888 255.208 418.888V419.784C258.92 420.296 260.584 421 261.864 421.96C262.888 422.92 263.464 424.52 263.592 426.44C271.4 425.8 272.552 422.6 272.552 418.248V373.192H266.472ZM243.816 385.288V387.144H257.064V385.288H243.816ZM243.56 401.928V403.784H256.296V401.928H243.56ZM240.104 385.288V411.4H241.064C243.816 411.4 245.544 410.056 245.544 409.672V385.288H246.376L240.104 382.856V385.288ZM254.184 385.288V408.712H255.144C256.872 408.712 259.688 407.624 259.752 407.24V387.848C260.84 387.656 261.672 387.208 262.056 386.76L256.296 382.472L253.608 385.288H254.184Z" fill="black"/>
<path d="M532.264 420.592L533.416 420.08C530.28 394.8 520.808 378.608 505.064 368.88C503.656 371.632 501.16 373.232 498.344 373.232L497.96 373.872C515.24 381.744 528.296 397.168 532.264 420.592ZM509.928 421.168H509.16C512.936 399.728 523.176 380.4 543.4 369.392L542.76 368.56C517.672 378.352 507.88 397.232 503.208 418.096C501.672 418.224 500.968 418.416 500.456 419.12L506.472 424.688L509.928 421.168ZM505.832 421.168H539.24L538.664 419.312H505.832V421.168ZM554.28 387.312C554.984 387.312 557.16 387.312 557.16 387.312V386.032C555.816 385.904 554.728 385.648 553.832 385.072C552.36 384.048 552.04 378.48 553.128 371.824C552.744 369.584 551.592 368.56 550.248 368.56C547.496 368.56 545.768 370.48 545.64 373.552C545.448 379.056 547.688 381.552 547.752 384.816C547.816 386.416 547.368 388.592 546.792 390.64C545.96 393.968 540.904 408.816 538.28 416.688L539.304 417.008C551.144 391.024 551.144 391.024 552.424 388.656C553.128 387.376 553.384 387.312 554.28 387.312ZM558.248 412.784L558.76 412.336C556.2 410.224 553.192 406.576 552.232 403.44C546.344 399.92 542.312 411.312 558.248 412.784ZM553.128 427.184L553.64 426.672C551.016 424.432 547.944 420.592 546.92 417.264C540.84 413.552 536.552 425.264 553.128 427.184ZM468.136 423.984V402.352H462.184V423.984H468.136ZM449.704 424.176V398.512H448.68C446.696 398.512 443.624 399.728 443.56 400.176V421.296C442.28 421.552 441.32 422.128 440.936 422.64L447.336 427.504L450.28 424.176H449.704ZM482.792 413.872V412.016H446.056V413.872H482.792ZM482.792 403.12V401.328H446.12V403.12H482.792ZM486.056 424.176V397.872H485.16C482.6 397.872 480.04 399.28 480.04 399.856V422.384H446.44V424.176H479.592L486.056 426.864V424.176ZM473.32 402.8C477.416 395.76 485.032 389.872 494.824 386.16L494.312 385.2C481.512 388.272 471.656 393.584 466.152 401.84V402.8H473.32ZM460.072 402.864L460.904 402.352C456.936 393.968 448.936 388.592 439.72 385.328C439.08 388.272 437.544 390.256 435.176 390.896L435.112 391.536C444.584 393.008 455.4 396.656 460.072 402.864ZM459.176 394.416V368.56H457.96C455.912 368.56 453.16 369.776 453.16 370.288V392.432C451.944 392.56 451.56 393.072 451.432 393.648L459.176 394.416ZM476.84 394.352V386.928C476.84 380.336 479.272 373.616 492.52 369.264L492.072 368.496C474.216 372.016 470.952 379.568 470.824 386.8V391.92C469.288 392.112 468.84 392.752 468.712 393.52L476.84 394.352Z" fill="black"/>
</svg>
